<?xml version="1.0" standalone="no"?>
<!DOCTYPE svg PUBLIC "-//W3C//DTD SVG 20010904//EN"
 "http://www.w3.org/TR/2001/REC-SVG-20010904/DTD/svg10.dtd">
<svg version="1.0" xmlns="http://www.w3.org/2000/svg"
 width="184.000000pt" height="184.000000pt" viewBox="0 0 184.000000 184.000000"
 preserveAspectRatio="xMidYMid meet">
<metadata>
Created by potrace 1.14, written by Peter Selinger 2001-2017
</metadata>
<g transform="translate(0.000000,184.000000) scale(0.100000,-0.100000)"
fill="#000000" stroke="none">
<path d="M810 1784 c-84 -50 -211 -123 -585 -339 -55 -32 -102 -60 -105 -62
-3 -3 -5 -211 -5 -464 l0 -460 398 -230 c218 -127 401 -229 406 -227 5 2 185
104 400 228 l390 225 0 465 0 465 -390 225 c-215 124 -396 226 -403 227 -6 2
-54 -22 -106 -53z m-105 -206 c-70 -84 -144 -173 -164 -197 -30 -37 -105 -126
-117 -140 -5 -5 -224 121 -224 128 0 7 623 369 628 365 2 -1 -54 -71 -123
-156z m220 154 c6 -4 40 -45 77 -92 36 -47 98 -125 137 -175 39 -49 84 -106
99 -125 15 -19 40 -49 56 -67 16 -19 27 -36 24 -38 -3 -3 -192 -4 -420 -3
l-415 3 76 91 c42 50 87 104 101 121 146 176 246 293 250 293 3 0 10 -4 15 -8z
m250 -97 c83 -48 166 -96 185 -107 148 -84 261 -151 264 -157 2 -3 -51 -35
-120 -71 -120 -63 -124 -64 -138 -45 -11 16 -307 392 -350 445 -7 9 -16 22
-20 29 -10 16 -19 20 179 -94z m490 -680 c0 -200 -3 -361 -6 -357 -9 10 -250
594 -247 597 2 1 53 28 113 59 61 32 114 62 119 67 5 5 12 6 15 3 3 -3 6 -169
6 -369z m-1369 297 l100 -57 -84 -220 c-46 -121 -96 -253 -110 -292 -15 -40
-29 -73 -32 -73 -3 0 -6 160 -5 355 0 313 2 355 15 350 8 -4 60 -32 116 -63z
m1034 -78 c0 -3 -93 -172 -207 -375 -164 -293 -209 -367 -218 -357 -10 10
-243 405 -316 535 -10 17 -29 49 -42 70 -12 21 -35 59 -51 86 l-27 47 430 0
c237 -1 431 -3 431 -6z m-682 -395 c117 -199 211 -364 208 -366 -2 -3 -28 0
-58 6 -53 10 -65 12 -188 31 -112 17 -374 60 -396 65 -21 5 -17 19 95 315 64
170 118 310 121 310 3 0 101 -163 218 -361z m822 136 c45 -110 87 -213 95
-230 29 -64 67 -166 64 -169 -2 -2 -22 -6 -44 -9 -22 -4 -96 -15 -165 -27
-137 -23 -145 -24 -240 -39 -36 -6 -76 -13 -89 -16 -13 -2 -47 -7 -77 -11
l-53 -6 131 234 c72 128 165 293 206 367 52 92 77 129 83 119 4 -7 44 -103 89
-213z m-925 -506 c149 -23 287 -46 308 -51 l37 -9 0 -140 c0 -130 -1 -139 -17
-130 -46 24 -649 374 -653 378 -3 3 9 3 25 0 17 -3 152 -25 300 -48z m848 -78
c-122 -70 -227 -131 -235 -135 -7 -4 -22 -12 -33 -19 -11 -7 -43 -25 -70 -41
-28 -16 -65 -37 -82 -48 l-33 -20 0 146 0 146 33 0 c17 0 50 5 72 10 22 5 62
11 89 15 27 3 51 7 55 9 3 2 35 7 71 11 36 4 68 9 71 10 3 2 28 7 55 11 27 3
81 12 119 19 39 7 79 13 90 14 11 1 -80 -57 -202 -128z"/>
</g>
</svg>
