<?xml version="1.0" standalone="no"?>
<!DOCTYPE svg PUBLIC "-//W3C//DTD SVG 20010904//EN"
 "http://www.w3.org/TR/2001/REC-SVG-20010904/DTD/svg10.dtd">
<svg version="1.0" xmlns="http://www.w3.org/2000/svg"
 width="512.000000pt" height="512.000000pt" viewBox="0 0 512.000000 512.000000"
 preserveAspectRatio="xMidYMid meet">
<metadata>
Created by potrace 1.14, written by Peter Selinger 2001-2017
</metadata>
<g transform="translate(0.000000,512.000000) scale(0.100000,-0.100000)"
fill="#000000" stroke="none">
<path d="M1390 4475 c-694 -397 -1135 -655 -1152 -674 l-28 -31 0 -1210 0
-1210 33 -34 c20 -22 439 -267 1154 -675 972 -555 1128 -641 1163 -641 35 0
191 86 1163 641 617 352 1136 654 1152 670 l30 29 3 1215 2 1215 -32 34 c-21
22 -437 265 -1155 675 -1014 579 -1127 641 -1165 640 -38 0 -177 -77 -1168
-644z m1645 -351 c259 -377 472 -689 473 -694 2 -6 -345 -10 -948 -10 -603 0
-950 4 -948 10 5 15 943 1379 948 1379 3 0 217 -308 475 -685z m-897 474 c-25
-35 -212 -307 -417 -605 -205 -299 -376 -543 -379 -543 -17 -1 -752 296 -749
303 2 8 1567 905 1580 906 5 1 -11 -27 -35 -61z m1602 -389 c435 -249 790
-455 790 -458 0 -3 -170 -74 -378 -156 l-377 -151 -344 501 c-189 275 -377
548 -418 608 -41 59 -72 107 -69 107 3 0 362 -203 796 -451z m-2527 -959 c7
-6 -747 -1384 -775 -1414 -4 -6 -8 382 -8 861 l0 871 388 -155 c213 -85 391
-158 395 -163z m3475 -987 l-3 -437 -394 709 c-318 572 -391 711 -379 718 8 5
185 78 394 161 l379 152 3 -433 c1 -238 1 -630 0 -870z m-1151 925 c-19 -50
-969 -1763 -977 -1763 -8 0 -958 1713 -977 1763 -4 9 195 12 977 12 782 0 981
-3 977 -12z m-1663 -1001 c263 -478 475 -871 472 -875 -5 -4 -1839 166 -1842
171 -4 8 881 1586 886 1580 4 -5 222 -399 484 -876z m2305 85 c318 -573 435
-792 423 -792 -10 -1 -426 -41 -927 -89 -500 -49 -911 -88 -912 -87 -1 0 217
398 484 884 267 485 487 881 489 879 2 -2 202 -360 443 -795z m-2502 -1125
c419 -40 765 -75 768 -78 3 -3 4 -177 3 -386 l-3 -380 -785 449 c-432 247
-792 453 -800 458 -25 16 23 12 817 -63z m2583 63 c-8 -5 -368 -211 -800 -458
l-785 -449 -3 380 c-1 209 0 382 2 385 6 5 1493 149 1556 151 31 0 40 -2 30
-9z"/>
</g>
</svg>
